<svg width="144" height="28" viewBox="0 0 144 28" fill="none" xmlns="http://www.w3.org/2000/svg">
<path d="M40.074 23.126C38.898 23.126 37.818 22.85 36.834 22.298C35.85 21.746 35.07 20.984 34.494 20.012C33.918 19.028 33.63 17.918 33.63 16.682C33.63 15.458 33.918 14.36 34.494 13.388C35.07 12.404 35.85 11.636 36.834 11.084C37.818 10.532 38.898 10.256 40.074 10.256C41.262 10.256 42.342 10.532 43.314 11.084C44.298 11.636 45.072 12.404 45.636 13.388C46.212 14.36 46.5 15.458 46.5 16.682C46.5 17.918 46.212 19.028 45.636 20.012C45.072 20.984 44.298 21.746 43.314 22.298C42.33 22.85 41.25 23.126 40.074 23.126ZM40.074 20.876C40.83 20.876 41.496 20.708 42.072 20.372C42.648 20.024 43.098 19.532 43.422 18.896C43.746 18.26 43.908 17.522 43.908 16.682C43.908 15.842 43.746 15.11 43.422 14.486C43.098 13.85 42.648 13.364 42.072 13.028C41.496 12.692 40.83 12.524 40.074 12.524C39.318 12.524 38.646 12.692 38.058 13.028C37.482 13.364 37.032 13.85 36.708 14.486C36.384 15.11 36.222 15.842 36.222 16.682C36.222 17.522 36.384 18.26 36.708 18.896C37.032 19.532 37.482 20.024 38.058 20.372C38.646 20.708 39.318 20.876 40.074 20.876ZM50.8948 14.576C51.2188 14.048 51.6388 13.634 52.1548 13.334C52.6828 13.034 53.2828 12.884 53.9548 12.884V15.53H53.2888C52.4968 15.53 51.8968 15.716 51.4888 16.088C51.0928 16.46 50.8948 17.108 50.8948 18.032V23H48.3748V13.028H50.8948V14.576ZM55.0042 17.978C55.0042 16.97 55.2022 16.076 55.5982 15.296C56.0062 14.516 56.5522 13.916 57.2362 13.496C57.9322 13.076 58.7062 12.866 59.5582 12.866C60.3022 12.866 60.9502 13.016 61.5022 13.316C62.0662 13.616 62.5162 13.994 62.8522 14.45V13.028H65.3902V23H62.8522V21.542C62.5282 22.01 62.0782 22.4 61.5022 22.712C60.9382 23.012 60.2842 23.162 59.5402 23.162C58.7002 23.162 57.9322 22.946 57.2362 22.514C56.5522 22.082 56.0062 21.476 55.5982 20.696C55.2022 19.904 55.0042 18.998 55.0042 17.978ZM62.8522 18.014C62.8522 17.402 62.7322 16.88 62.4922 16.448C62.2522 16.004 61.9282 15.668 61.5202 15.44C61.1122 15.2 60.6742 15.08 60.2062 15.08C59.7382 15.08 59.3062 15.194 58.9102 15.422C58.5142 15.65 58.1902 15.986 57.9382 16.43C57.6982 16.862 57.5782 17.378 57.5782 17.978C57.5782 18.578 57.6982 19.106 57.9382 19.562C58.1902 20.006 58.5142 20.348 58.9102 20.588C59.3182 20.828 59.7502 20.948 60.2062 20.948C60.6742 20.948 61.1122 20.834 61.5202 20.606C61.9282 20.366 62.2522 20.03 62.4922 19.598C62.7322 19.154 62.8522 18.626 62.8522 18.014ZM73.3774 12.884C74.5654 12.884 75.5254 13.262 76.2574 14.018C76.9894 14.762 77.3554 15.806 77.3554 17.15V23H74.8354V17.492C74.8354 16.7 74.6374 16.094 74.2414 15.674C73.8454 15.242 73.3054 15.026 72.6214 15.026C71.9254 15.026 71.3734 15.242 70.9654 15.674C70.5694 16.094 70.3714 16.7 70.3714 17.492V23H67.8514V13.028H70.3714V14.27C70.7074 13.838 71.1334 13.502 71.6494 13.262C72.1774 13.01 72.7534 12.884 73.3774 12.884ZM83.6578 12.866C84.4018 12.866 85.0558 13.016 85.6198 13.316C86.1838 13.604 86.6278 13.982 86.9518 14.45V13.028H89.4898V23.072C89.4898 23.996 89.3038 24.818 88.9318 25.538C88.5598 26.27 88.0018 26.846 87.2578 27.266C86.5138 27.698 85.6138 27.914 84.5578 27.914C83.1418 27.914 81.9778 27.584 81.0658 26.924C80.1658 26.264 79.6558 25.364 79.5358 24.224H82.0378C82.1698 24.68 82.4518 25.04 82.8838 25.304C83.3278 25.58 83.8618 25.718 84.4858 25.718C85.2178 25.718 85.8118 25.496 86.2678 25.052C86.7238 24.62 86.9518 23.96 86.9518 23.072V21.524C86.6278 21.992 86.1778 22.382 85.6018 22.694C85.0378 23.006 84.3898 23.162 83.6578 23.162C82.8178 23.162 82.0498 22.946 81.3538 22.514C80.6578 22.082 80.1058 21.476 79.6978 20.696C79.3018 19.904 79.1038 18.998 79.1038 17.978C79.1038 16.97 79.3018 16.076 79.6978 15.296C80.1058 14.516 80.6518 13.916 81.3358 13.496C82.0318 13.076 82.8058 12.866 83.6578 12.866ZM86.9518 18.014C86.9518 17.402 86.8318 16.88 86.5918 16.448C86.3518 16.004 86.0278 15.668 85.6198 15.44C85.2118 15.2 84.7738 15.08 84.3058 15.08C83.8378 15.08 83.4058 15.194 83.0098 15.422C82.6138 15.65 82.2898 15.986 82.0378 16.43C81.7978 16.862 81.6778 17.378 81.6778 17.978C81.6778 18.578 81.7978 19.106 82.0378 19.562C82.2898 20.006 82.6138 20.348 83.0098 20.588C83.4178 20.828 83.8498 20.948 84.3058 20.948C84.7738 20.948 85.2118 20.834 85.6198 20.606C86.0278 20.366 86.3518 20.03 86.5918 19.598C86.8318 19.154 86.9518 18.626 86.9518 18.014ZM101.221 17.798C101.221 18.158 101.197 18.482 101.149 18.77H93.859C93.919 19.49 94.171 20.054 94.615 20.462C95.059 20.87 95.605 21.074 96.253 21.074C97.189 21.074 97.855 20.672 98.251 19.868H100.969C100.681 20.828 100.129 21.62 99.313 22.244C98.497 22.856 97.495 23.162 96.307 23.162C95.347 23.162 94.483 22.952 93.715 22.532C92.959 22.1 92.365 21.494 91.933 20.714C91.513 19.934 91.303 19.034 91.303 18.014C91.303 16.982 91.513 16.076 91.933 15.296C92.353 14.516 92.941 13.916 93.697 13.496C94.453 13.076 95.323 12.866 96.307 12.866C97.255 12.866 98.101 13.07 98.845 13.478C99.601 13.886 100.183 14.468 100.591 15.224C101.011 15.968 101.221 16.826 101.221 17.798ZM98.611 17.078C98.599 16.43 98.365 15.914 97.909 15.53C97.453 15.134 96.895 14.936 96.235 14.936C95.611 14.936 95.083 15.128 94.651 15.512C94.231 15.884 93.973 16.406 93.877 17.078H98.611Z" fill="white"/>
<path d="M119.854 10.436L116.344 23H113.374L111.016 14.054L108.55 23L105.598 23.018L102.214 10.436H104.914L107.128 20.192L109.684 10.436H112.492L114.904 20.138L117.136 10.436H119.854ZM120.852 17.978C120.852 16.97 121.05 16.076 121.446 15.296C121.854 14.516 122.4 13.916 123.084 13.496C123.78 13.076 124.554 12.866 125.406 12.866C126.15 12.866 126.798 13.016 127.35 13.316C127.914 13.616 128.364 13.994 128.7 14.45V13.028H131.238V23H128.7V21.542C128.376 22.01 127.926 22.4 127.35 22.712C126.786 23.012 126.132 23.162 125.388 23.162C124.548 23.162 123.78 22.946 123.084 22.514C122.4 22.082 121.854 21.476 121.446 20.696C121.05 19.904 120.852 18.998 120.852 17.978ZM128.7 18.014C128.7 17.402 128.58 16.88 128.34 16.448C128.1 16.004 127.776 15.668 127.368 15.44C126.96 15.2 126.522 15.08 126.054 15.08C125.586 15.08 125.154 15.194 124.758 15.422C124.362 15.65 124.038 15.986 123.786 16.43C123.546 16.862 123.426 17.378 123.426 17.978C123.426 18.578 123.546 19.106 123.786 19.562C124.038 20.006 124.362 20.348 124.758 20.588C125.166 20.828 125.598 20.948 126.054 20.948C126.522 20.948 126.96 20.834 127.368 20.606C127.776 20.366 128.1 20.03 128.34 19.598C128.58 19.154 128.7 18.626 128.7 18.014ZM143.239 13.028L137.065 27.716H134.383L136.543 22.748L132.547 13.028H135.373L137.947 19.994L140.557 13.028H143.239Z" fill="#FF0F00"/>
<path d="M36 6.14635L18 11.6098L0 6.14635L18 0L36 6.14635Z" fill="#FF0F00"/>
<path d="M28.2353 20.4218C28.2353 23.8364 25.2491 27.934 17.6471 27.934C10.045 27.934 7.41177 24.5706 7.41177 20.4218C7.41177 7.78749 10.045 14.2754 17.6471 14.2754C25.2491 14.2754 28.2353 8.12898 28.2353 20.4218Z" fill="#FF0F00"/>
</svg>
